<svg width="89" height="19" viewBox="0 0 89 19" fill="none" xmlns="http://www.w3.org/2000/svg">
<path d="M8.88643 13.5927L13.4549 16.35L12.2425 11.1533L16.2787 7.65671L10.9637 7.20578L8.88643 2.30469L6.8092 7.20578L1.49414 7.65671L5.53033 11.1533L4.318 16.35L8.88643 13.5927Z" fill="#EDE411"/>
<path d="M26.6286 13.5927L31.1971 16.35L29.9847 11.1533L34.0209 7.65671L28.7059 7.20578L26.6286 2.30469L24.5514 7.20578L19.2363 7.65671L23.2725 11.1533L22.0602 16.35L26.6286 13.5927Z" fill="#EDE411"/>
<path d="M44.3689 13.5927L48.9373 16.35L47.725 11.1533L51.7611 7.65671L46.4461 7.20578L44.3689 2.30469L42.2916 7.20578L36.9766 7.65671L41.0128 11.1533L39.8004 16.35L44.3689 13.5927Z" fill="#EDE411"/>
<path d="M62.111 13.5927L66.6795 16.35L65.4671 11.1533L69.5033 7.65671L64.1883 7.20578L62.111 2.30469L60.0338 7.20578L54.7188 7.65671L58.7549 11.1533L57.5426 16.35L62.111 13.5927Z" fill="#EDE411"/>
<path d="M79.8532 13.5927L84.4217 16.35L83.2093 11.1533L87.2455 7.65671L81.9305 7.20578L79.8532 2.30469L77.776 7.20578L72.4609 7.65671L76.4971 11.1533L75.2848 16.35L79.8532 13.5927Z" fill="#EDE411"/>
</svg>
